<svg width="39" height="38" viewBox="0 0 39 38" fill="none" xmlns="http://www.w3.org/2000/svg">
<circle cx="19.5174" cy="18.6638" r="18.5862" fill="#ED3237" fill-opacity="0.1"/>
<path d="M9.38863 23.0722C8.39887 19.1032 7.904 17.1198 8.94335 15.7853C9.98156 14.4507 12.0234 14.4507 16.1035 14.4507H21.4445C25.5258 14.4507 27.5653 14.4507 28.6046 15.7853C29.644 17.1187 29.1491 19.1043 28.1594 23.0722C27.5295 25.5968 27.2158 26.8585 26.2768 27.594C25.3378 28.3284 24.04 28.3284 21.4445 28.3284H16.1035C13.508 28.3284 12.2102 28.3284 11.2712 27.594C10.3322 26.8585 10.0173 25.5968 9.38863 23.0722Z" stroke="#ED3237" stroke-width="1.99138"/>
<path d="M27.4255 15.0291L26.6065 12.0165C26.2904 10.8542 26.1323 10.2736 25.8082 9.83534C25.485 9.39989 25.046 9.06444 24.5416 8.86737C24.034 8.66846 23.4342 8.66846 22.2345 8.66846M10.1221 15.0291L10.9411 12.0165C11.2572 10.8542 11.4152 10.2736 11.7394 9.83534C12.0626 9.39989 12.5015 9.06444 13.006 8.86737C13.5135 8.66846 14.1134 8.66846 15.3131 8.66846" stroke="#ED3237" stroke-width="1.99138"/>
<path d="M15.3132 8.66868C15.3132 8.36197 15.4348 8.06781 15.6511 7.85093C15.8674 7.63405 16.1608 7.51221 16.4668 7.51221H21.081C21.387 7.51221 21.6804 7.63405 21.8967 7.85093C22.1131 8.06781 22.2346 8.36197 22.2346 8.66868C22.2346 8.9754 22.1131 9.26955 21.8967 9.48643C21.6804 9.70331 21.387 9.82516 21.081 9.82516H16.4668C16.1608 9.82516 15.8674 9.70331 15.6511 9.48643C15.4348 9.26955 15.3132 8.9754 15.3132 8.66868Z" stroke="#ED3237" stroke-width="1.99138"/>
</svg>
