<svg width="89" height="89" viewBox="0 0 89 89" fill="none" xmlns="http://www.w3.org/2000/svg">
<path d="M48.2967 7.97305V15.4063C62.8319 17.2094 74.0553 29.5735 74.0553 44.5871C74.0553 56.3992 66.9901 66.6659 56.6866 71.376L48.2967 62.9861V81.3851H66.6957L62.2063 76.8957C73.7241 70.6033 81.4149 58.4231 81.4149 44.5871C81.4149 25.5257 66.8797 9.81295 48.2967 7.97305ZM40.9371 7.78906C33.7614 8.52502 26.9538 11.3217 21.3605 15.9214L26.5858 21.1467C30.7632 17.9276 35.7113 15.8595 40.9371 15.1487V7.78906ZM15.9144 21.3307C11.3515 26.924 8.55481 33.7317 7.81885 40.9073H15.1785C15.8776 35.682 17.9383 30.7142 21.1765 26.556L15.9144 21.3307ZM22.5381 29.8679V37.2275H33.5775V40.9073H29.8977C25.8499 40.9073 22.5381 44.2191 22.5381 48.2669V59.3063H40.9371V51.9467H29.8977V48.2669H33.5775C37.662 48.2669 40.9371 44.9919 40.9371 40.9073V37.2275C40.9371 35.2756 40.1617 33.4036 38.7815 32.0234C37.4013 30.6433 35.5293 29.8679 33.5775 29.8679H22.5381ZM44.6169 29.8679V48.2669H55.6563V59.3063H63.0159V48.2669H66.6957V40.9073H63.0159V29.8679H55.6563V40.9073H51.9765V29.8679H44.6169ZM7.81885 48.2669C8.55481 55.4425 11.3883 62.2501 15.988 67.8434L21.2133 62.6181C17.981 58.4446 15.9001 53.4961 15.1785 48.2669H7.81885ZM26.6226 68.0274L21.3605 73.2527C26.9515 77.8176 33.7572 80.6448 40.9371 81.3851V74.0255C35.7178 73.3321 30.7771 71.2619 26.6226 68.0274Z" fill="black"/>
</svg>
