<svg width="78" height="77" viewBox="0 0 78 77" fill="none" xmlns="http://www.w3.org/2000/svg">
<path d="M31.5753 43.9673L34.3766 34.9481L27.0133 29.0936H36.1374L39.0186 20.2326L41.8999 29.0936H51.024L43.5807 34.9481L46.3819 43.9673L39.0186 38.3501L31.5753 43.9673ZM19.8101 73.3984V48.9516C17.7825 46.7364 16.2085 44.2047 15.088 41.3565C13.9675 38.5083 13.4072 35.4756 13.4072 32.2582C13.4072 25.1905 15.8883 19.2041 20.8505 14.2989C25.8128 9.39375 31.8688 6.94116 39.0186 6.94116C46.1685 6.94116 52.2245 9.39375 57.1867 14.2989C62.1489 19.2041 64.6301 25.1905 64.6301 32.2582C64.6301 35.4756 64.0698 38.5083 62.9493 41.3565C61.8288 44.2047 60.2548 46.7364 58.2272 48.9516V73.3984L39.0186 67.0691L19.8101 73.3984ZM39.0186 51.246C44.3544 51.246 48.8897 49.3999 52.6247 45.7079C56.3597 42.0158 58.2272 37.5326 58.2272 32.2582C58.2272 26.9838 56.3597 22.5006 52.6247 18.8085C48.8897 15.1165 44.3544 13.2704 39.0186 13.2704C33.6829 13.2704 29.1476 15.1165 25.4126 18.8085C21.6776 22.5006 19.8101 26.9838 19.8101 32.2582C19.8101 37.5326 21.6776 42.0158 25.4126 45.7079C29.1476 49.3999 33.6829 51.246 39.0186 51.246Z" fill="black"/>
</svg>
