<svg width="82" height="60" viewBox="0 0 82 60" fill="none" xmlns="http://www.w3.org/2000/svg">
<path d="M8.19993 0.148438C6.24804 0.148438 4.3761 0.923822 2.99591 2.30401C1.61572 3.68421 0.840332 5.55615 0.840332 7.50804V47.9858H8.19993C8.19993 50.9137 9.36301 53.7216 11.4333 55.7919C13.5036 57.8622 16.3115 59.0252 19.2393 59.0252C22.1672 59.0252 24.9751 57.8622 27.0454 55.7919C29.1157 53.7216 30.2787 50.9137 30.2787 47.9858H52.3575C52.3575 50.9137 53.5206 53.7216 55.5909 55.7919C57.6612 57.8622 60.4691 59.0252 63.3969 59.0252C66.3248 59.0252 69.1327 57.8622 71.203 55.7919C73.2733 53.7216 74.4363 50.9137 74.4363 47.9858H81.7959V29.5868L70.7565 14.8676H59.7171V0.148438M33.9585 7.50804L48.6777 22.2272L33.9585 36.9464V25.907H11.8797V18.5474H33.9585M59.7171 20.3873H68.9166L76.1658 29.5868H59.7171M19.2393 42.4661C20.7032 42.4661 22.1072 43.0477 23.1424 44.0828C24.1775 45.118 24.759 46.5219 24.759 47.9858C24.759 49.4498 24.1775 50.8537 23.1424 51.8889C22.1072 52.924 20.7032 53.5055 19.2393 53.5055C17.7754 53.5055 16.3715 52.924 15.3363 51.8889C14.3012 50.8537 13.7196 49.4498 13.7196 47.9858C13.7196 46.5219 14.3012 45.118 15.3363 44.0828C16.3715 43.0477 17.7754 42.4661 19.2393 42.4661ZM63.3969 42.4661C64.8609 42.4661 66.2648 43.0477 67.2999 44.0828C68.3351 45.118 68.9166 46.5219 68.9166 47.9858C68.9166 49.4498 68.3351 50.8537 67.2999 51.8889C66.2648 52.924 64.8609 53.5055 63.3969 53.5055C61.933 53.5055 60.5291 52.924 59.4939 51.8889C58.4588 50.8537 57.8772 49.4498 57.8772 47.9858C57.8772 46.5219 58.4588 45.118 59.4939 44.0828C60.5291 43.0477 61.933 42.4661 63.3969 42.4661Z" fill="black"/>
</svg>
