<svg width="10" height="10" viewBox="0 0 10 10" fill="none" xmlns="http://www.w3.org/2000/svg">
<path d="M3.33333 1.25C2.18292 1.25 1.25 2.18292 1.25 3.33333V6.66667C1.25 7.81708 2.18292 8.75 3.33333 8.75H6.66667C7.81708 8.75 8.75 7.81708 8.75 6.66667V3.33333C8.75 2.18292 7.81708 1.25 6.66667 1.25H3.33333ZM7.5 2.08333C7.73 2.08333 7.91667 2.27 7.91667 2.5C7.91667 2.73 7.73 2.91667 7.5 2.91667C7.27 2.91667 7.08333 2.73 7.08333 2.5C7.08333 2.27 7.27 2.08333 7.5 2.08333ZM5 2.91667C6.15042 2.91667 7.08333 3.84958 7.08333 5C7.08333 6.15042 6.15042 7.08333 5 7.08333C3.84958 7.08333 2.91667 6.15042 2.91667 5C2.91667 3.84958 3.84958 2.91667 5 2.91667ZM5 3.75C4.66848 3.75 4.35054 3.8817 4.11612 4.11612C3.8817 4.35054 3.75 4.66848 3.75 5C3.75 5.33152 3.8817 5.64946 4.11612 5.88388C4.35054 6.1183 4.66848 6.25 5 6.25C5.33152 6.25 5.64946 6.1183 5.88388 5.88388C6.1183 5.64946 6.25 5.33152 6.25 5C6.25 4.66848 6.1183 4.35054 5.88388 4.11612C5.64946 3.8817 5.33152 3.75 5 3.75Z" fill="#B4B4B4"/>
</svg>
